name ./resultDataOpenSim/trcMotMarkerGrf/sub09/grf-01-02.mot
datacolumns 19
datarows 12
range 0.98800000 1.03200000
endheader

                time	     ground_force_vx	     ground_force_vy	     ground_force_vz	     ground_force_px	     ground_force_py	     ground_force_pz	   l_ground_force_vx	   l_ground_force_vy	   l_ground_force_vz	   l_ground_force_px	   l_ground_force_py	   l_ground_force_pz	     ground_torque_x	     ground_torque_y	     ground_torque_z	   l_ground_torque_x	   l_ground_torque_y	   l_ground_torque_z	
          0.98800000	          0.00000000	          0.00000000	          0.00000000	          0.00000000	          0.00000000	          0.00000000	         -9.43044078	        419.49689412	         17.69479532	          0.12024272	         -0.00000000	          0.02790440	          0.00000000	          0.00000000	          0.00000000	          0.00000000	         -1.21592656	          0.00000000	
          0.99200000	          0.00000000	          0.00000000	          0.00000000	          0.00000000	          0.00000000	          0.00000000	         -8.81693834	        423.76778869	         18.15831679	          0.12223147	         -0.00000000	          0.02779049	          0.00000000	          0.00000000	          0.00000000	          0.00000000	         -1.23484914	          0.00000000	
          0.99600000	          0.00000000	          0.00000000	          0.00000000	          0.00000000	          0.00000000	          0.00000000	         -7.92348144	        428.66452350	         18.61086815	          0.12421354	         -0.00000000	          0.02770885	          0.00000000	          0.00000000	          0.00000000	          0.00000000	         -1.26178912	          0.00000000	
          1.00000000	          0.00000000	          0.00000000	          0.00000000	          0.00000000	          0.00000000	          0.00000000	         -6.78952101	        434.14042339	         19.05265574	          0.12619564	         -0.00000000	          0.02765424	          0.00000000	          0.00000000	          0.00000000	          0.00000000	         -1.29952637	          0.00000000	
          1.00400000	          0.00000000	          0.00000000	          0.00000000	          0.00000000	          0.00000000	          0.00000000	         -5.49386045	        440.09129436	         19.48623888	          0.12816867	         -0.00000000	          0.02762022	          0.00000000	          0.00000000	          0.00000000	          0.00000000	         -1.35189243	          0.00000000	
          1.00800000	          0.00000000	          0.00000000	          0.00000000	          0.00000000	          0.00000000	          0.00000000	         -4.11527689	        446.46862383	         19.89306044	          0.13010858	         -0.00000000	          0.02760762	          0.00000000	          0.00000000	          0.00000000	          0.00000000	         -1.42352383	          0.00000000	
          1.01200000	          0.00000000	          0.00000000	          0.00000000	          0.00000000	          0.00000000	          0.00000000	         -2.70520979	        453.30184884	         20.23043147	          0.13199658	         -0.00000000	          0.02762614	          0.00000000	          0.00000000	          0.00000000	          0.00000000	         -1.51885302	          0.00000000	
          1.01600000	          0.00000000	          0.00000000	          0.00000000	          0.00000000	          0.00000000	          0.00000000	         -1.28020493	        460.60912119	         20.46371511	          0.13381750	         -0.00000000	          0.02768464	          0.00000000	          0.00000000	          0.00000000	          0.00000000	         -1.64054056	          0.00000000	
          1.02000000	          0.00000000	          0.00000000	          0.00000000	          0.00000000	          0.00000000	          0.00000000	          0.17928830	        468.32733687	         20.59929011	          0.13555970	         -0.00000000	          0.02778165	          0.00000000	          0.00000000	          0.00000000	          0.00000000	         -1.78804972	          0.00000000	
          1.02400000	          0.00000000	          0.00000000	          0.00000000	          0.00000000	          0.00000000	          0.00000000	          1.72156450	        476.32815434	         20.68136211	          0.13721469	         -0.00000000	          0.02791499	          0.00000000	          0.00000000	          0.00000000	          0.00000000	         -1.95715652	          0.00000000	
          1.02800000	          0.00000000	          0.00000000	          0.00000000	          0.00000000	          0.00000000	          0.00000000	          3.40370723	        484.45770882	         20.76638657	          0.13876450	         -0.00000000	          0.02806588	          0.00000000	          0.00000000	          0.00000000	          0.00000000	         -2.14073122	          0.00000000	
          1.03200000	          0.00000000	          0.00000000	          0.00000000	          0.00000000	          0.00000000	          0.00000000	          5.26775617	        492.55744826	         20.90692215	          0.14016795	         -0.00000000	          0.02819762	          0.00000000	          0.00000000	          0.00000000	          0.00000000	         -2.33045202	          0.00000000	
